<svg xmlns="http://www.w3.org/2000/svg" width="24" height="24" viewBox="0 0 24 24" fill="none">
  <path d="M5 7h12v6a5 5 0 0 1-5 5H10a5 5 0 0 1-5-5V7z" fill="#C08457"/>
  <path d="M5 7h12v1H5z" fill="#925639"/>
  <path d="M19 8h1a2 2 0 0 1 0 4h-1" stroke="#925639" stroke-width="1.5" stroke-linecap="round" stroke-linejoin="round" fill="none"/>
  <path d="M7 19h8" stroke="#925639" stroke-width="1.5" stroke-linecap="round"/>
  <path d="M9 4s-.5 1 .5 2-1 2-.5 3" stroke="#925639" stroke-width="1.5" stroke-linecap="round" stroke-linejoin="round" fill="none"/>
  <path d="M13 4s-.5 1 .5 2-1 2-.5 3" stroke="#925639" stroke-width="1.5" stroke-linecap="round" stroke-linejoin="round" fill="none"/>
</svg>
