<?xml version="1.0" encoding="UTF-8"?>
<svg xmlns="http://www.w3.org/2000/svg" viewBox="0 0 800 400" role="img" aria-label="World map basemap">
  <defs>
    <linearGradient id="worldWater" x1="0" y1="0" x2="0" y2="1">
      <stop offset="0" stop-color="#d7edff" />
      <stop offset="1" stop-color="#b8dcff" />
    </linearGradient>
    <linearGradient id="worldLand" x1="0" y1="0" x2="0" y2="1">
      <stop offset="0" stop-color="#cbd5f5" />
      <stop offset="1" stop-color="#9fb7e1" />
    </linearGradient>
  </defs>
  <rect width="800" height="400" fill="url(#worldWater)" />
  <g fill="url(#worldLand)" stroke="#5b7bb2" stroke-width="1.6" stroke-linejoin="round">
    <path id="eurasia-africa" d="M378.89 120 L386.67 106.67 L388.89 103.11 L395.56 103.33 L403.33 104.44 L407.78 103.56 L413.33 100 L418.67 101.33 L421.11 107.78 L427.78 106.89 L430 98.89 L432.22 97.11 L436.89 96.67 L441.78 98.22 L444.44 101.78 L446.67 103.78 L451.11 102.22 L454.44 99.33 L461.11 98.89 L464.44 96.67 L468.89 94.89 L476.67 96.67 L484.44 99.11 L490 103.33 L494.44 107.78 L500 112.22 L501.11 116.67 L504.44 113.33 L508.89 108.89 L513.33 106.67 L520 107.78 L524.44 103.33 L527.78 101.11 L531.11 97.78 L535.56 91.11 L542.22 85.56 L546.67 80 L555.56 77.78 L560 80 L566.67 77.78 L573.33 75.56 L577.78 75.56 L582.22 73.33 L587.78 71.11 L595.56 66.67 L600 62.22 L607.78 60 L613.33 57.78 L624.44 55.56 L635.56 50 L646.67 48.89 L655.56 47.78 L666.67 44.44 L680 42.22 L688.89 38.89 L702.22 38.89 L711.11 42.22 L724.44 44.44 L733.33 46.67 L742.22 51.11 L755.56 51.11 L764.44 53.33 L773.33 55.56 L777.78 62.22 L782.22 66.67 L784.44 71.11 L786.67 77.78 L791.11 84.44 L797.78 91.11 L795.56 97.78 L786.67 102.22 L777.78 104.44 L764.44 103.33 L755.56 97.78 L742.22 95.56 L728.89 97.78 L715.56 100 L700 104.44 L688.89 111.11 L680 117.78 L677.78 124.44 L668.89 128.89 L666.67 135.56 L662.22 142.22 L657.78 151.11 L648.89 160 L640 162.22 L631.11 166.67 L622.22 171.11 L615.56 177.78 L626.67 184.44 L635.56 186.67 L644.44 186.67 L655.56 191.11 L666.67 191.11 L677.78 195.56 L684.44 200 L688.89 206.67 L693.33 213.33 L697.78 217.78 L704.44 226.67 L713.33 231.11 L724.44 240 L731.11 246.67 L724.44 253.33 L713.33 255.56 L706.67 255.56 L697.78 248.89 L688.89 244.44 L680 244.44 L666.67 248.89 L653.33 244.44 L644.44 235.56 L635.56 226.67 L631.11 215.56 L624.44 208.89 L613.33 204.44 L608.89 193.33 L600 182.22 L591.11 173.33 L582.22 166.67 L573.33 160 L564.44 153.33 L555.56 151.11 L546.67 146.67 L540 140 L533.33 133.33 L528.89 124.44 L522.22 120 L513.33 124.44 L506.67 133.33 L500 137.78 L493.33 126.67 L488.89 120 L482.22 120 L475.56 128.89 L466.67 128.89 L460 126.67 L453.33 128.89 L448.89 131.11 L444.44 128.89 L442.22 133.33 L444.44 140 L442.22 144.44 L437.78 148.89 L433.33 157.78 L431.11 164.44 L428.89 171.11 L426.67 177.78 L422.22 182.22 L417.78 188.89 L413.33 191.11 L408.89 188.89 L404.44 188.89 L400 186.67 L395.56 184.44 L391.11 180 L386.67 177.78 L380 180 L373.33 177.78 L368.89 173.33 L362.22 168.89 L360 162.22 L362.22 155.56 L364.44 151.11 L366.67 146.67 L366.67 140 L366.67 133.33 L373.33 137.78 L378.89 120 Z" />
    <path id="north-america" d="M26.67 40 L33.33 55.56 L48.89 60 L66.67 66.67 L84.44 68.89 L100 75.56 L115.56 80 L122.22 88.89 L126.67 93.33 L128.89 100 L126.67 107.78 L124.44 115.56 L126.67 120 L135.56 124.44 L140 127.78 L146.67 127.78 L151.11 130 L157.78 131.11 L164.44 131.11 L171.11 135.56 L177.78 137.78 L184.44 144.44 L191.11 148.89 L200 153.33 L206.67 155.56 L211.11 153.33 L213.33 147.78 L217.78 144.44 L222.22 142.22 L226.67 137.78 L231.11 133.33 L235.56 130 L240 127.78 L244.44 111.11 L246.67 104.44 L251.11 100 L253.33 95.56 L251.11 91.11 L246.67 86.67 L240 82.22 L233.33 77.78 L222.22 71.11 L211.11 68.89 L200 68.89 L188.89 73.33 L177.78 75.56 L155.56 66.67 L133.33 55.56 L111.11 44.44 L88.89 40 L66.67 40 L44.44 37.78 L26.67 40 Z" />
    <path id="greenland" d="M284.44 15.56 L297.78 17.78 L306.67 22.22 L317.78 26.67 L322.22 33.33 L320 37.78 L313.33 40 L302.22 40 L293.33 35.56 L288.89 31.11 L282.22 26.67 L277.78 22.22 L280 17.78 L284.44 15.56 Z" />
    <path id="south-america" d="M220 173.33 L224.44 182.22 L228.89 191.11 L231.11 197.78 L233.33 208.89 L228.89 217.78 L222.22 226.67 L220 240 L224.44 251.11 L233.33 260 L244.44 266.67 L251.11 280 L255.56 288.89 L260 300 L262.22 311.11 L266.67 315.56 L271.11 317.78 L275.56 315.56 L280 311.11 L284.44 302.22 L288.89 288.89 L293.33 280 L302.22 266.67 L306.67 248.89 L308.89 231.11 L304.44 213.33 L297.78 204.44 L288.89 195.56 L280 188.89 L271.11 186.67 L262.22 186.67 L253.33 188.89 L244.44 188.89 L235.56 182.22 L226.67 177.78 L220 173.33 Z" />
    <path id="australia" d="M651.11 248.89 L657.78 255.56 L668.89 257.78 L680 255.56 L693.33 255.56 L704.44 260 L711.11 271.11 L724.44 275.56 L735.56 273.33 L740 264.44 L737.78 253.33 L728.89 244.44 L717.78 240 L702.22 235.56 L688.89 233.33 L675.56 235.56 L666.67 240 L657.78 244.44 L651.11 248.89 Z" />
    <path id="new-zealand" d="M768.89 273.33 L777.78 282.22 L784.44 293.33 L777.78 300 L771.11 297.78 L766.67 288.89 L768.89 273.33 Z" />
    <path id="japan" d="M688.89 126.67 L693.33 122.22 L700 117.78 L706.67 115.56 L713.33 113.33 L717.78 106.67 L715.56 102.22 L708.89 100 L702.22 104.44 L697.78 111.11 L693.33 115.56 L688.89 122.22 L688.89 126.67 Z" />
    <path id="iceland" d="M344.44 53.33 L351.11 51.11 L360 52.22 L364.44 57.78 L355.56 60 L348.89 58.89 L344.44 53.33 Z" />
    <path id="british-isles" d="M382.22 80 L386.67 71.11 L393.33 68.89 L400 71.11 L403.33 75.56 L401.11 80 L397.78 86.67 L391.11 88.89 L386.67 86.67 L382.22 80 Z" />
    <path id="madagascar" d="M502.22 226.67 L508.89 233.33 L511.11 240 L508.89 246.67 L504.44 251.11 L497.78 246.67 L495.56 237.78 L497.78 228.89 L502.22 226.67 Z" />
    <path id="southeast-asia-islands" d="M613.33 186.67 L622.22 186.67 L631.11 191.11 L640 188.89 L646.67 184.44 L655.56 186.67 L662.22 191.11 L662.22 197.78 L657.78 204.44 L648.89 208.89 L640 206.67 L631.11 204.44 L622.22 200 L617.78 195.56 L613.33 186.67 Z" />
    <path id="new-guinea" d="M688.89 202.22 L697.78 204.44 L706.67 205.56 L717.78 211.11 L728.89 213.33 L735.56 208.89 L733.33 202.22 L724.44 197.78 L711.11 196.67 L700 196.67 L691.11 198.89 L688.89 202.22 Z" />
    <path id="antarctica" d="M0 333.33 L44.44 351.11 L133.33 355.56 L266.67 360 L355.56 364.44 L444.44 364.44 L533.33 360 L622.22 351.11 L711.11 346.67 L800 342.22 L800 377.78 L0 377.78 Z" />
  </g>
</svg>
