<svg xmlns="http://www.w3.org/2000/svg" viewBox="0 0 800 400">
  <defs>
    <linearGradient id="worldWater" x1="0" y1="0" x2="0" y2="1">
      <stop offset="0" stop-color="#dbeafe" />
      <stop offset="1" stop-color="#bfdbfe" />
    </linearGradient>
  </defs>
  <rect width="800" height="400" fill="url(#worldWater)" />
  <g fill="#bfdbfe" stroke="#60a5fa" stroke-width="2.5" stroke-linejoin="round" stroke-linecap="round">
    <path d="M60 118Q76 60 124 50t104 18q56 14 92 8t60 32q-34 22-76 28t-70 34l22 24q8 16 4 40l-58 46-68-20-40 20-44-24-54 6-20-52 30-36 44-20 20-40-18-24z" />
    <path d="M210 232l42-22 50 6 28 36 46 10 46 42 16 48-40 36-58 6-46-24-34-46-44-26-16-36z" />
    <path d="M264 156l70-40 86-22 78 8 84-18 72 30 66 54 40 66-14 46-54 30-60 2-60-44-60-18-50-36-70-6-40-32-18-48z" />
    <path d="M504 72q66-46 150-50t132 20l30 42-8 54-50 20-48 52-64 16-54-34-40-62-40-32z" />
    <path d="M560 234l46-20 48 10 28 44-14 48-52 26-52-18-26-48z" />
    <path d="M652 284l50-30h54l46 20 12 36-16 42-40 16-70 4-38-38z" />
    <path d="M120 284l38 32 30 52-12 46-40 32-42-12-28-36 14-54z" />
    <path d="M492 320l54 28 62-6 38 34-8 30-62 10-66-12-32-38z" />
    <path d="M26 262l36-20 40 6 18 34-20 46-38 14-28-18-12-34z" />
    <path d="M708 118l36-32 40 4 24 36-16 40-32 18-38-16-14-50z" />
    <path d="M60 340l64-12 74 18 70 2 62 16 46 8 58-10 74 12 92 0 86-12 70-16 58 8 42 20-22 12-750 0z" opacity="0.65" />
    <path d="M360 276l28-26 36-4 30 16 10 40-32 28-38-6-26-34z" opacity="0.8" />
  </g>
</svg>
